<svg id="visual" viewBox="0 0 900 600" width="900" height="600" xmlns="http://www.w3.org/2000/svg" xmlns:xlink="http://www.w3.org/1999/xlink" version="1.1"><path d="M0 187L21.5 191C43 195 86 203 128.8 197C171.7 191 214.3 171 257.2 174C300 177 343 203 385.8 205C428.7 207 471.3 185 514.2 168C557 151 600 139 642.8 144C685.7 149 728.3 171 771.2 180C814 189 857 185 878.5 183L900 181L900 0L878.5 0C857 0 814 0 771.2 0C728.3 0 685.7 0 642.8 0C600 0 557 0 514.2 0C471.3 0 428.7 0 385.8 0C343 0 300 0 257.2 0C214.3 0 171.7 0 128.8 0C86 0 43 0 21.5 0L0 0Z" fill="#6198ff"></path><path d="M0 259L21.5 270C43 281 86 303 128.8 307C171.7 311 214.3 297 257.2 294C300 291 343 299 385.8 295C428.7 291 471.3 275 514.2 267C557 259 600 259 642.8 267C685.7 275 728.3 291 771.2 296C814 301 857 295 878.5 292L900 289L900 179L878.5 181C857 183 814 187 771.2 178C728.3 169 685.7 147 642.8 142C600 137 557 149 514.2 166C471.3 183 428.7 205 385.8 203C343 201 300 175 257.2 172C214.3 169 171.7 189 128.8 195C86 201 43 193 21.5 189L0 185Z" fill="#3c80ff"></path><path d="M0 325L21.5 341C43 357 86 389 128.8 392C171.7 395 214.3 369 257.2 367C300 365 343 387 385.8 388C428.7 389 471.3 369 514.2 358C557 347 600 345 642.8 352C685.7 359 728.3 375 771.2 383C814 391 857 391 878.5 391L900 391L900 287L878.5 290C857 293 814 299 771.2 294C728.3 289 685.7 273 642.8 265C600 257 557 257 514.2 265C471.3 273 428.7 289 385.8 293C343 297 300 289 257.2 292C214.3 295 171.7 309 128.8 305C86 301 43 279 21.5 268L0 257Z" fill="#0066ff"></path><path d="M0 415L21.5 424C43 433 86 451 128.8 449C171.7 447 214.3 425 257.2 424C300 423 343 443 385.8 447C428.7 451 471.3 439 514.2 434C557 429 600 431 642.8 437C685.7 443 728.3 453 771.2 458C814 463 857 463 878.5 463L900 463L900 389L878.5 389C857 389 814 389 771.2 381C728.3 373 685.7 357 642.8 350C600 343 557 345 514.2 356C471.3 367 428.7 387 385.8 386C343 385 300 363 257.2 365C214.3 367 171.7 393 128.8 390C86 387 43 355 21.5 339L0 323Z" fill="#0059dd"></path><path d="M0 601L21.5 601C43 601 86 601 128.8 601C171.7 601 214.3 601 257.2 601C300 601 343 601 385.8 601C428.7 601 471.3 601 514.2 601C557 601 600 601 642.8 601C685.7 601 728.3 601 771.2 601C814 601 857 601 878.5 601L900 601L900 461L878.5 461C857 461 814 461 771.2 456C728.3 451 685.7 441 642.8 435C600 429 557 427 514.2 432C471.3 437 428.7 449 385.8 445C343 441 300 421 257.2 422C214.3 423 171.7 445 128.8 447C86 449 43 431 21.5 422L0 413Z" fill="#004cbb"></path></svg>